<svg data-v-d3f97b9e="" xmlns="http://www.w3.org/2000/svg" viewBox="0 0 NaN NaN"><!----><linearGradient data-v-d3f97b9e="" gradientTransform="rotate(25)" id="7b6eecb9-e24a-4a22-9ac1-ffa3bbfd42b7" x1="0%" y1="0%" x2="100%" y2="0%"><stop data-v-d3f97b9e="" offset="0%" style="stop-color: rgb(1, 100, 139); stop-opacity: 1;"></stop><stop data-v-d3f97b9e="" offset="100%" style="stop-color: rgb(91, 208, 164); stop-opacity: 1;"></stop></linearGradient><!----><g data-v-d3f97b9e="" id="11c7c2bd-50f5-4201-8d58-05698caac04b" fill="#ffffff" transform="matrix(Infinity,0,0,Infinity,0,0)"><path d=""></path></g><!----><g data-v-d3f97b9e="" id="cad1f5db-4bbf-47fa-ab38-cab3eaf611ab" transform="matrix(1.1258509033593296,0,0,1.1258509033593296,-6.301450949455919,-10.256616786066786)" stroke="none" fill="#ffffff"><path d="M79.503 50.754l-.045-.04c3.383-3.38 6.048-6.046 6.048-6.046a4.06 4.06 0 0 0 1.19-2.889c0-1.098-.423-2.12-1.19-2.889l-.086-.084a4.057 4.057 0 0 0-2.893-1.191 4.042 4.042 0 0 0-2.883 1.191l-.544.541a7.093 7.093 0 0 0-.715-.874c-.016-.015-.032-.02-.045-.035l6.049-6.051a4.09 4.09 0 0 0 .002-5.773l-.089-.089a4.085 4.085 0 0 0-5.775 0l-1.101 1.097a7.325 7.325 0 0 0-.72-.874c-.012-.01-.029-.021-.042-.035l6.049-6.046a4.062 4.062 0 0 0 1.189-2.894 4.044 4.044 0 0 0-1.199-2.889s-.087-.09-.077-.085a4.092 4.092 0 0 0-5.772 0l-9.199 9.199a7.067 7.067 0 0 0-.714-.874c-.013-.015-.031-.025-.043-.035l6.049-6.051a4.092 4.092 0 0 0 .005-5.773s-.09-.084-.091-.089a4.054 4.054 0 0 0-2.888-1.191c-1.095 0-2.12.422-2.89 1.191L45.307 32.953c-.181-.244-.354-.486-.573-.705-.002 0-.099-.1-.199-.199 2.207-2.204 6.203-6.2 6.203-6.206a3.811 3.811 0 0 0 1.126-2.725c0-1.033-.4-2.006-1.126-2.735l-.399-.398a3.874 3.874 0 0 0-5.465 0L32.238 32.624c-.061.064-.115.134-.174.208a4.97 4.97 0 0 0-.106.139l-.018.021-.02.02c-.092.084-.186.168-.279.249-.148.128-.29.252-.424.387a23.178 23.178 0 0 0-4.329 6.032l-1.569 1.568-3.242 3.242c-.149.149-.246.278-.342.402-.044.035-.082.07-.131.114a9.575 9.575 0 0 0-.557.511c-10.137 10.136-10.137 26.652.01 36.798s26.661 10.146 36.808 0c.298-.302.55-.591.773-.844l.09-.104c.171-.129.359-.278.562-.478.028-.029 20.213-20.213 20.216-20.213 2.556-2.562 2.69-6.607.46-9.357-.154-.188-.287-.391-.463-.565zm-3.598 6.329c.003 0-20.182 20.185-20.153 20.16a5.329 5.329 0 0 1-.264.203 2.156 2.156 0 0 0-.397.362l-.282.317c-.193.224-.375.433-.553.61-8.152 8.152-21.439 8.152-29.604-.014-8.166-8.166-8.166-21.456 0-29.622.077-.079.181-.169.292-.263.109-.095.233-.204.363-.328.094-.085.183-.184.263-.283.109-.145.133-.179.144-.189-.043.047 12.596-12.597 12.596-12.597.32-.318.752-.497 1.214-.497s.894.179 1.213.497l.399.402a1.714 1.714 0 0 1 0 2.422l-7.625 7.63a2.544 2.544 0 0 0 1.488 4.319c.074.01.168.024.268.04.801.124 1.752-.12 2.326-.695l22.93-22.93a1.92 1.92 0 0 1 1.37-.561 1.92 1.92 0 0 1 1.367.561c.449.452.648.934.648 1.455a1.92 1.92 0 0 1-.562 1.37L43.344 49.458a2.546 2.546 0 0 0-.727 2.1 2.54 2.54 0 0 0 1.204 1.866c.055.035.126.079.201.129 1.005.66 2.406.566 3.257-.283L70.29 30.257a1.937 1.937 0 0 1 2.736 0c.449.452.647.938.65 1.455a1.93 1.93 0 0 1-.562 1.37L50.103 56.096a2.544 2.544 0 0 0-.303 3.231c.055.079.109.163.162.243a2.526 2.526 0 0 0 1.866 1.182 2.546 2.546 0 0 0 2.088-.726l18.05-18.049a1.917 1.917 0 0 1 1.369-.562c.52 0 1.005.199 1.367.562.842.844.842 2.069.087 2.825.003 0-20.975 20.978-20.975 20.978a2.527 2.527 0 0 0-.707 2.225c.02.118.039.247.055.372a2.534 2.534 0 0 0 1.694 2.09 2.533 2.533 0 0 0 2.624-.606l15.602-15.602a1.917 1.917 0 0 1 1.366-.562 1.92 1.92 0 0 1 1.37.562c.842.844.842 2.069.087 2.824z"></path></g><!----></svg>